<?xml version="1.0" encoding="UTF-8" standalone="no"?>
<!DOCTYPE svg PUBLIC "-//W3C//DTD SVG 1.1//EN"
 "http://www.w3.org/Graphics/SVG/1.1/DTD/svg11.dtd">
<!-- Generated by graphviz version 2.43.0 (0)
 -->
<!-- Title: PaintWidget::setBrushSize Pages: 1 -->
<svg width="560pt" height="27pt"
 viewBox="0.00 0.00 560.00 27.00" xmlns="http://www.w3.org/2000/svg" xmlns:xlink="http://www.w3.org/1999/xlink">
<g id="graph0" class="graph" transform="scale(1 1) rotate(0) translate(4 23)">
<title>PaintWidget::setBrushSize</title>
<!-- Node1 -->
<g id="Node000001" class="node">
<title>Node1</title>
<g id="a_Node000001"><a xlink:title="Set brush diameter in pixels.">
<polygon fill="#999999" stroke="#666666" points="552,-19 408,-19 408,0 552,0 552,-19"/>
<text text-anchor="middle" x="480" y="-7" font-family="Helvetica,sans-Serif" font-size="10.00">PaintWidget::setBrushSize</text>
</a>
</g>
</g>
<!-- Node2 -->
<g id="Node000002" class="node">
<title>Node2</title>
<g id="a_Node000002"><a xlink:href="class_main_window.html#a655858da1524804a26d80fef56969c48" target="_top" xlink:title="Slot for updating brush size based on slider value.">
<polygon fill="white" stroke="#666666" points="372,-19 184,-19 184,0 372,0 372,-19"/>
<text text-anchor="middle" x="278" y="-7" font-family="Helvetica,sans-Serif" font-size="10.00">MainWindow::onBrushSizeChanged</text>
</a>
</g>
</g>
<!-- Node1&#45;&gt;Node2 -->
<g id="edge1_Node000001_Node000002" class="edge">
<title>Node1&#45;&gt;Node2</title>
<g id="a_edge1_Node000001_Node000002"><a xlink:title=" ">
<path fill="none" stroke="#63b8ff" d="M397.77,-9.5C389.36,-9.5 380.76,-9.5 372.23,-9.5"/>
<polygon fill="#63b8ff" stroke="#63b8ff" points="397.92,-13 407.92,-9.5 397.92,-6 397.92,-13"/>
</a>
</g>
</g>
<!-- Node3 -->
<g id="Node000003" class="node">
<title>Node3</title>
<g id="a_Node000003"><a xlink:href="class_main_window.html#a996c5a2b6f77944776856f08ec30858d" target="_top" xlink:title="&lt; Required for Qt signal/slot mechanism">
<polygon fill="white" stroke="#666666" points="148,-19 0,-19 0,0 148,0 148,-19"/>
<text text-anchor="middle" x="74" y="-7" font-family="Helvetica,sans-Serif" font-size="10.00">MainWindow::MainWindow</text>
</a>
</g>
</g>
<!-- Node2&#45;&gt;Node3 -->
<g id="edge2_Node000002_Node000003" class="edge">
<title>Node2&#45;&gt;Node3</title>
<g id="a_edge2_Node000002_Node000003"><a xlink:title=" ">
<path fill="none" stroke="#63b8ff" d="M173.83,-9.5C165.17,-9.5 156.54,-9.5 148.18,-9.5"/>
<polygon fill="#63b8ff" stroke="#63b8ff" points="173.98,-13 183.98,-9.5 173.98,-6 173.98,-13"/>
</a>
</g>
</g>
</g>
</svg>
